<svg xmlns="http://www.w3.org/2000/svg" width="980" height="360" viewBox="0 0 980 360" role="img" aria-labelledby="title">
  <title id="title">Four distinct routes for claim four</title><rect width="980" height="360" fill="#101827" rx="18"/>
  <g font-family="sans-serif"><text x="48" y="50" font-size="26" font-weight="700" fill="#f8fafc">Claim 4: four routes, no valid theorem verdict</text>
    <rect x="48" y="78" width="205" height="180" rx="12" fill="#26344a"/><text x="150" y="112" text-anchor="middle" font-size="18" font-weight="700" fill="#fbbf24">1 · lemma audit</text><text x="150" y="150" text-anchor="middle" font-size="15" fill="#dbeafe">7/10 antecedent</text><text x="150" y="177" text-anchor="middle" font-size="15" fill="#dbeafe">diagonals 2/5</text><text x="150" y="222" text-anchor="middle" font-size="15" fill="#fca5a5">proof step false</text>
    <rect x="274" y="78" width="205" height="180" rx="12" fill="#26344a"/><text x="376" y="112" text-anchor="middle" font-size="18" font-weight="700" fill="#fbbf24">2 · exhaustive</text><text x="376" y="150" text-anchor="middle" font-size="15" fill="#dbeafe">125 models</text><text x="376" y="177" text-anchor="middle" font-size="15" fill="#dbeafe">19 KLST* pass</text><text x="376" y="204" text-anchor="middle" font-size="15" fill="#dbeafe">19 represented</text><text x="376" y="232" text-anchor="middle" font-size="15" fill="#fca5a5">finite only</text>
    <rect x="500" y="78" width="205" height="180" rx="12" fill="#26344a"/><text x="602" y="112" text-anchor="middle" font-size="18" font-weight="700" fill="#fbbf24">3 · type audit</text><text x="602" y="150" text-anchor="middle" font-size="15" fill="#dbeafe">atomic domain Y</text><text x="602" y="177" text-anchor="middle" font-size="15" fill="#dbeafe">witness in Yᵅ</text><text x="602" y="222" text-anchor="middle" font-size="15" fill="#fca5a5">closure absent</text>
    <rect x="726" y="78" width="205" height="180" rx="12" fill="#26344a"/><text x="828" y="112" text-anchor="middle" font-size="18" font-weight="700" fill="#fbbf24">4 · adversarial</text><text x="828" y="150" text-anchor="middle" font-size="15" fill="#dbeafe">6,000 targets</text><text x="828" y="177" text-anchor="middle" font-size="15" fill="#dbeafe">5,987 nonrep.</text><text x="828" y="204" text-anchor="middle" font-size="15" fill="#dbeafe">0 satisfy axioms</text><text x="828" y="232" text-anchor="middle" font-size="15" fill="#fca5a5">no counterexample</text>
    <rect x="310" y="286" width="360" height="46" rx="12" fill="#d89b2b"/><text x="490" y="316" text-anchor="middle" font-size="21" font-weight="700" fill="white">BLOCKED · confidence LOW</text></g>
</svg>
